# xmcd
#
# Track frame offsets:
# 150
# 8055
# 18037
# 27997
# 47495
# 55355
# 63617
# 76135
# 84615
# 96892
# 107067
# 135927
# 144505
# 164905
# 176195
# 184340
#
# Disc length: 2606 seconds
#
#
# Revision: 0
# Processed by: cddbd v1.5.2PL0 Copyright (c) Steve Scherf et al.
# Submitted via: FreeRIP 2.60 
#
DISCID=d30a2c10
DTITLE=The Levee Singers - The Next One
DYEAR=1900
DGENRE=Country
TTITLE0=Wake Up Little Susie
TTITLE1=Fightin' Side Of Me
TTITLE2=Is It True What They Say About Dixie
TTITLE3=Old Dogs and Children and Watermelon Wine
TTITLE4=I'm Walkin'
TTITLE5=Down Yonder
TTITLE6=Blue Bayou
TTITLE7=Mobile
TTITLE8=Scotch and Soda
TTITLE9=She Taught Me To Yodel
TTITLE10=Willie Medely
TTITLE11=When You're Old and Grey
TTITLE12=Gospel Medely
TTITLE13=Oh, What A Beautiful Mornin'
TTITLE14=There'll Be Some Changes Made
TTITLE15=I'm Going To Sit Right Down And Write Myself A Letter
EXTD=
EXTT0=
EXTT1=
EXTT2=
EXTT3=
EXTT4=
EXTT5=
EXTT6=
EXTT7=
EXTT8=
EXTT9=
EXTT10=
EXTT11=
EXTT12=
EXTT13=
EXTT14=
EXTT15=
PLAYORDER=
